<?xml version="1.0" encoding="UTF-8" standalone="no"?>
<!-- Created with Inkscape (http://www.inkscape.org/) -->

<svg
   xmlns:osb="http://www.openswatchbook.org/uri/2009/osb"
   xmlns:dc="http://purl.org/dc/elements/1.1/"
   xmlns:cc="http://creativecommons.org/ns#"
   xmlns:rdf="http://www.w3.org/1999/02/22-rdf-syntax-ns#"
   xmlns:svg="http://www.w3.org/2000/svg"
   xmlns="http://www.w3.org/2000/svg"
   xmlns:sodipodi="http://sodipodi.sourceforge.net/DTD/sodipodi-0.dtd"
   xmlns:inkscape="http://www.inkscape.org/namespaces/inkscape"
   width="117.76842mm"
   height="112.2121mm"
   viewBox="0 0 417.2897 397.60192"
   id="svg5641"
   version="1.1"
   inkscape:version="0.91 r13725"
   sodipodi:docname="header.svg"
   inkscape:export-filename="/Users/rplevy/header.png"
   inkscape:export-xdpi="300"
   inkscape:export-ydpi="300">
  <defs
     id="defs5643">
    <inkscape:perspective
       sodipodi:type="inkscape:persp3d"
       inkscape:vp_x="-16.879299 : 579.32064 : 1"
       inkscape:vp_y="192.80349 : 981.23733 : 0"
       inkscape:vp_z="713.25407 : 435.85663 : 1"
       inkscape:persp3d-origin="314.37086 : 335.48579 : 1"
       id="perspective6449" />
    <linearGradient
       id="linearGradient6441"
       osb:paint="solid">
      <stop
         style="stop-color:#000000;stop-opacity:1;"
         offset="0"
         id="stop6443" />
    </linearGradient>
    <inkscape:perspective
       sodipodi:type="inkscape:persp3d"
       inkscape:vp_x="42.728972 : 505.42701 : 1"
       inkscape:vp_y="0 : 999.99996 : 0"
       inkscape:vp_z="786.82351 : 505.42701 : 1"
       inkscape:persp3d-origin="414.77623 : 330.03332 : 1"
       id="perspective6387" />
  </defs>
  <sodipodi:namedview
     id="base"
     pagecolor="#f2ffa3"
     bordercolor="#666666"
     borderopacity="1.0"
     inkscape:pageopacity="1"
     inkscape:pageshadow="2"
     inkscape:zoom="1.6073228"
     inkscape:cx="303.66372"
     inkscape:cy="221.40359"
     inkscape:document-units="px"
     inkscape:current-layer="layer1"
     showgrid="false"
     inkscape:window-width="1680"
     inkscape:window-height="1005"
     inkscape:window-x="0"
     inkscape:window-y="1"
     inkscape:window-maximized="1"
     units="mm"
     fit-margin-top="0"
     fit-margin-left="0"
     fit-margin-right="0"
     fit-margin-bottom="0" />
  <metadata
     id="metadata5646">
    <rdf:RDF>
      <cc:Work
         rdf:about="">
        <dc:format>image/svg+xml</dc:format>
        <dc:type
           rdf:resource="http://purl.org/dc/dcmitype/StillImage" />
        <dc:title></dc:title>
      </cc:Work>
    </rdf:RDF>
  </metadata>
  <g
     inkscape:label="Layer 1"
     inkscape:groupmode="layer"
     id="layer1"
     transform="translate(-68.383521,-83.905251)">
    <path
       sodipodi:type="star"
       style="fill:none;fill-opacity:1;stroke:#000000;stroke-width:1.70000005;stroke-linecap:butt;stroke-linejoin:miter;stroke-miterlimit:4;stroke-dasharray:none;stroke-dashoffset:0;stroke-opacity:0"
       id="path5839"
       sodipodi:sides="6"
       sodipodi:cx="201.43657"
       sodipodi:cy="549.99158"
       sodipodi:r1="85.040527"
       sodipodi:r2="73.647263"
       sodipodi:arg1="0.77017091"
       sodipodi:arg2="1.2937697"
       inkscape:flatsided="true"
       inkscape:rounded="0"
       inkscape:randomized="0"
       d="m 262.47795,609.20172 -81.79818,23.25832 -61.04138,-59.21014 20.7568,-82.46846 81.79817,-23.25832 61.04139,59.21014 z" />
    <g
       sodipodi:type="inkscape:box3d"
       id="g6389"
       style="opacity:0;fill:#000000;fill-opacity:1;stroke:#000000;stroke-width:2;stroke-linecap:butt;stroke-linejoin:miter;stroke-miterlimit:4;stroke-dasharray:none;stroke-dashoffset:0;stroke-opacity:1"
       inkscape:perspectiveID="#perspective6387"
       inkscape:corner0="1.2163636 : 0.092857223 : 0 : 1"
       inkscape:corner7="0.61671085 : -0.0022486167 : 0.25 : 1">
      <path
         sodipodi:type="inkscape:box3dside"
         id="path6399"
         style="fill:#afafde;fill-rule:evenodd;stroke:none;stroke-width:1px;stroke-linecap:butt;stroke-linejoin:round;stroke-opacity:1"
         inkscape:box3dsidetype="13"
         d="m 278.9763,4668.8649 62.26221,29.7285 68.83343,-14.7156 -72.68671,-23.1372 z"
         points="341.23851,4698.5934 410.07194,4683.8778 337.38523,4660.7406 278.9763,4668.8649 " />
      <path
         sodipodi:type="inkscape:box3dside"
         id="path6391"
         style="fill:#353564;fill-rule:evenodd;stroke:none;stroke-width:1px;stroke-linecap:butt;stroke-linejoin:round;stroke-opacity:1"
         inkscape:box3dsidetype="6"
         d="m 278.9763,4625.9541 0,42.9108 58.40893,-8.1243 0,-38.5612 z"
         points="278.9763,4668.8649 337.38523,4660.7406 337.38523,4622.1794 278.9763,4625.9541 " />
      <path
         sodipodi:type="inkscape:box3dside"
         id="path6401"
         style="fill:#e9e9ff;fill-rule:evenodd;stroke:none;stroke-width:1px;stroke-linecap:butt;stroke-linejoin:round;stroke-opacity:1"
         inkscape:box3dsidetype="11"
         d="m 337.38523,4622.1794 72.68671,10.7501 0,50.9483 -72.68671,-23.1372 z"
         points="410.07194,4632.9295 410.07194,4683.8778 337.38523,4660.7406 337.38523,4622.1794 " />
      <path
         sodipodi:type="inkscape:box3dside"
         id="path6393"
         style="fill:#4d4d9f;fill-rule:evenodd;stroke:none;stroke-width:1px;stroke-linecap:butt;stroke-linejoin:round;stroke-opacity:1"
         inkscape:box3dsidetype="5"
         d="m 278.9763,4625.9541 62.26221,13.8125 68.83343,-6.8371 -72.68671,-10.7501 z"
         points="341.23851,4639.7666 410.07194,4632.9295 337.38523,4622.1794 278.9763,4625.9541 " />
      <path
         sodipodi:type="inkscape:box3dside"
         id="path6397"
         style="fill:#d7d7ff;fill-rule:evenodd;stroke:none;stroke-width:1px;stroke-linecap:butt;stroke-linejoin:round;stroke-opacity:1"
         inkscape:box3dsidetype="14"
         d="m 341.23851,4639.7666 0,58.8268 68.83343,-14.7156 0,-50.9483 z"
         points="341.23851,4698.5934 410.07194,4683.8778 410.07194,4632.9295 341.23851,4639.7666 " />
      <path
         sodipodi:type="inkscape:box3dside"
         id="path6395"
         style="fill:#8686bf;fill-rule:evenodd;stroke:none;stroke-width:1px;stroke-linecap:butt;stroke-linejoin:round;stroke-opacity:1"
         inkscape:box3dsidetype="3"
         d="m 278.9763,4625.9541 62.26221,13.8125 0,58.8268 -62.26221,-29.7285 z"
         points="341.23851,4639.7666 341.23851,4698.5934 278.9763,4668.8649 278.9763,4625.9541 " />
    </g>
    <g
       sodipodi:type="inkscape:box3d"
       id="g6403"
       style="opacity:0;fill:#000000;fill-opacity:1;stroke:#000000;stroke-width:2;stroke-linecap:butt;stroke-linejoin:miter;stroke-miterlimit:4;stroke-dasharray:none;stroke-dashoffset:0;stroke-opacity:1"
       inkscape:perspectiveID="#perspective6387"
       inkscape:corner0="1.2083333 : 0.082041532 : 0 : 1"
       inkscape:corner7="0.71690137 : 0.25633932 : 0.081387682 : 1">
      <path
         sodipodi:type="inkscape:box3dside"
         id="path6415"
         style="fill:#e9e9ff;fill-rule:evenodd;stroke:none;stroke-width:1px;stroke-linecap:butt;stroke-linejoin:round;stroke-opacity:1"
         inkscape:box3dsidetype="11"
         d="m 300.04702,4629.4847 51.63156,11.1415 0,-96.9242 -51.63156,9.6608 z"
         points="351.67858,4640.6262 351.67858,4543.702 300.04702,4553.3628 300.04702,4629.4847 " />
      <path
         sodipodi:type="inkscape:box3dside"
         id="path6405"
         style="fill:#353564;fill-rule:evenodd;stroke:none;stroke-width:1px;stroke-linecap:butt;stroke-linejoin:round;stroke-opacity:1"
         inkscape:box3dsidetype="6"
         d="m 279.58671,4630.9872 0,-78.9273 20.46031,1.3029 0,76.1219 z"
         points="279.58671,4552.0599 300.04702,4553.3628 300.04702,4629.4847 279.58671,4630.9872 " />
      <path
         sodipodi:type="inkscape:box3dside"
         id="path6413"
         style="fill:#afafde;fill-rule:evenodd;stroke:none;stroke-width:1px;stroke-linecap:butt;stroke-linejoin:round;stroke-opacity:1"
         inkscape:box3dsidetype="13"
         d="m 279.58671,4552.0599 48.2227,-10.4917 23.86917,2.1338 -51.63156,9.6608 z"
         points="327.80941,4541.5682 351.67858,4543.702 300.04702,4553.3628 279.58671,4552.0599 " />
      <path
         sodipodi:type="inkscape:box3dside"
         id="path6407"
         style="fill:#4d4d9f;fill-rule:evenodd;stroke:none;stroke-width:1px;stroke-linecap:butt;stroke-linejoin:round;stroke-opacity:1"
         inkscape:box3dsidetype="5"
         d="m 279.58671,4630.9872 48.2227,12.0998 23.86917,-2.4608 -51.63156,-11.1415 z"
         points="327.80941,4643.087 351.67858,4640.6262 300.04702,4629.4847 279.58671,4630.9872 " />
      <path
         sodipodi:type="inkscape:box3dside"
         id="path6411"
         style="fill:#d7d7ff;fill-rule:evenodd;stroke:none;stroke-width:1px;stroke-linecap:butt;stroke-linejoin:round;stroke-opacity:1"
         inkscape:box3dsidetype="14"
         d="m 327.80941,4643.087 0,-101.5188 23.86917,2.1338 0,96.9242 z"
         points="327.80941,4541.5682 351.67858,4543.702 351.67858,4640.6262 327.80941,4643.087 " />
      <path
         sodipodi:type="inkscape:box3dside"
         id="path6409"
         style="fill:#8686bf;fill-rule:evenodd;stroke:none;stroke-width:1px;stroke-linecap:butt;stroke-linejoin:round;stroke-opacity:1"
         inkscape:box3dsidetype="3"
         d="m 279.58671,4630.9872 48.2227,12.0998 0,-101.5188 -48.2227,10.4917 z"
         points="327.80941,4643.087 327.80941,4541.5682 279.58671,4552.0599 279.58671,4630.9872 " />
    </g>
    <g
       id="g6623"
       transform="matrix(0.58401423,0,0,0.58401423,110.57072,117.6497)">
      <g
         transform="matrix(2.8184513,-0.04503686,0.04503686,2.8184513,-392.70084,-672.69768)"
         id="g6512">
        <g
           id="g5707"
           transform="matrix(0.58569962,0.01989597,-0.02066717,0.56384416,161.58453,252.04567)">
          <path
             inkscape:connector-curvature="0"
             d="m 35.868,48 c 0,6.69 5.443,12.131 12.132,12.131 6.69,0 12.131,-5.44 12.131,-12.131 0,-6.689 -5.44,-12.131 -12.131,-12.131 -6.688,0 -12.132,5.442 -12.132,12.131 z m 7.949,-7.68 1.942,3.364 -0.378,0.218 -1.942,-3.363 0.378,-0.219 z m -1.845,1.344 2.747,2.748 -0.31,0.309 -2.747,-2.748 0.31,-0.309 z m -1.434,1.776 3.364,1.943 -0.219,0.378 -3.364,-1.943 0.219,-0.378 z m -0.927,2.086 3.753,1.005 -0.113,0.423 -3.753,-1.006 0.113,-0.422 z m -0.354,2.693 0,-0.438 3.886,0 0,0.438 -3.886,0 z m 0.241,1.832 3.753,-1.005 0.113,0.422 -3.753,1.006 -0.113,-0.423 z m 0.82,2.132 3.364,-1.942 0.219,0.378 -3.364,1.942 -0.219,-0.378 z m 1.345,1.843 2.747,-2.747 0.31,0.309 -2.748,2.747 -0.309,-0.309 z m 1.775,1.435 1.943,-3.365 0.378,0.219 -1.942,3.365 -0.379,-0.219 z m 2.509,1.04 -0.423,-0.113 1.005,-3.753 0.423,0.113 -1.005,3.753 z m 0.584,-13.136 -1.006,-3.752 0.422,-0.113 1.006,3.753 -0.422,0.112 z m 1.686,13.376 -0.437,0 0,-3.885 0.437,0 0,3.885 z m 1.834,-0.24 -1.005,-3.753 0.422,-0.113 1.005,3.753 -0.422,0.113 z m 2.13,-0.821 -1.942,-3.365 0.378,-0.218 1.943,3.364 -0.379,0.219 z m 1.843,-1.345 -2.747,-2.746 0.31,-0.31 2.746,2.747 -0.309,0.309 z m 1.437,-1.775 -3.365,-1.941 0.219,-0.379 3.365,1.942 -0.219,0.378 z m 0.926,-2.085 -3.754,-1.006 0.113,-0.422 3.753,1.006 -0.112,0.422 z m 0.352,-2.694 0,0.438 -3.884,0 0,-0.438 3.884,0 z m -0.24,-1.833 -3.753,1.005 -0.112,-0.422 3.753,-1.005 0.112,0.422 z m -0.82,-2.129 -3.364,1.942 -0.219,-0.378 3.364,-1.942 0.219,0.378 z m -1.346,-1.845 -2.747,2.748 -0.309,-0.31 2.747,-2.747 0.309,0.309 z m -1.775,-1.434 -1.941,3.364 -0.378,-0.219 1.942,-3.364 0.377,0.219 z M 50.05,39.5 50.473,39.613 49.467,43.365 49.045,43.252 50.05,39.5 Z m -1.833,3.644 -0.437,0 0,-3.885 0.437,0 0,3.885 z"
             id="path5709" />
          <path
             inkscape:connector-curvature="0"
             d="M 88.317,47.614 C 88.138,47.465 70.016,32.759 48,32.759 25.983,32.759 7.862,47.466 7.682,47.614 L 7.213,48 7.682,48.386 c 0.18,0.148 18.301,14.855 40.318,14.855 22.016,0 40.138,-14.707 40.317,-14.855 L 88.787,48 88.317,47.614 Z M 48,62.241 C 28.354,62.241 11.832,50.316 8.81,48 11.832,45.684 28.354,33.759 48,33.759 67.646,33.759 84.168,45.684 87.189,48 84.17,50.316 67.656,62.241 48,62.241 Z"
             id="path5711" />
        </g>
        <path
           inkscape:connector-curvature="0"
           d="m 247.40464,315.98871 c -0.0232,-0.53881 -0.0463,-1.07759 -0.004,-1.59134 -1.01139,0.0714 -1.95654,0.16775 -2.76733,-0.2907 -0.63722,-0.31691 -1.24926,-0.70023 -1.77006,-1.1246 -0.23983,-0.1665 -0.3312,-0.12522 -0.47259,0.0482 -0.59091,0.76061 -0.51057,1.54825 0.10855,2.31274 0.33819,0.5067 0.82683,0.616 1.36563,0.59293 0.76255,-0.0141 1.5412,0.12928 2.30375,0.11513 0.42245,0.0843 0.82878,0.0108 1.23516,-0.0624 z m 8.15226,-1.53195 c -1.07056,0.42755 -2.20539,0.22497 -3.52283,0.10473 0.28097,0.25782 0.53685,0.5819 0.77668,0.74844 1.17403,0.8989 2.00794,1.89616 2.65023,3.19948 0.26295,0.70536 0.82489,1.22102 1.54436,1.72063 0.29195,-0.57094 0.55879,-1.07567 0.85071,-1.64662 0.0754,-0.1986 -0.007,-0.38108 -0.20575,-0.45651 -1.00944,-0.5337 -1.446,-1.3805 -1.7411,-2.4009 -0.0733,-0.40636 -0.21279,-0.83779 -0.3523,-1.26923 z m -9.0108,5.59889 c 0.32405,-0.25589 0.49059,-0.49571 0.78958,-0.68538 0.0659,0.0258 0.3472,0.28291 0.4295,0.46551 0.43654,0.84683 1.10584,1.47889 2.13332,1.56505 -0.77473,-1.35347 -1.52439,-2.77316 -2.27406,-4.19286 -1.55921,0.31822 -3.18466,0.61137 -4.71489,-0.3467 -0.29194,0.57094 -0.15438,1.60744 0.35036,1.87426 1.02559,0.69106 2.19257,1.20868 3.28652,1.3193 z m 8.78471,10.59542 c -0.0824,-0.18261 -0.16458,-0.36521 -0.1305,-0.6552 -0.60187,1.58941 -0.69,3.22191 -0.39685,4.84734 -0.33121,-0.12522 -0.33121,-0.12522 -0.43657,-0.8468 -0.0322,-0.31505 -0.13049,-0.65518 -0.20378,-1.06154 -0.16626,0.23993 -0.21658,0.37231 -0.26683,0.50474 -0.0659,-0.0258 -0.0913,0.0412 -0.15751,0.016 -0.32917,-0.73042 -0.13562,-1.6415 -0.25711,-2.52045 -0.14145,0.1736 -0.19162,0.30605 -0.35815,0.54588 -0.0824,-0.1826 -0.0984,-0.34013 -0.13951,-0.43145 0.0108,-0.82879 0.22058,-1.58233 0.69512,-2.23557 0.0506,-0.1323 0.14145,-0.1736 0.23276,-0.21477 0.1575,-0.016 0.28997,0.0341 0.44749,0.0181 -0.0258,0.0659 -0.008,0.2238 -0.0592,0.35622 -0.0506,0.13229 -0.14138,0.17364 -0.19162,0.30604 0.24883,-0.0573 0.43144,-0.1395 0.68027,-0.19672 -0.3954,-0.75549 -0.76573,-1.57722 -1.18621,-2.26651 -0.61016,-0.98824 -1.31161,-1.93537 -1.92174,-2.92362 -0.10736,-0.11632 -0.18969,-0.299 -0.27198,-0.48161 -0.0573,-0.24885 -0.20574,-0.45649 -0.58702,-0.44944 -0.51374,-0.0432 -1.04353,-0.24372 -1.48202,-0.48549 -0.61211,-0.38321 -1.15797,-0.74137 -1.77008,-1.12459 -0.1736,-0.14146 -0.46357,-0.17553 -0.68731,-0.18455 -0.89503,-0.036 -1.79003,-0.0721 -2.66898,0.0495 -0.69634,0.0392 -1.40168,0.30214 -1.89227,0.79786 -0.49062,0.49572 -0.48353,0.87697 0.17872,1.12778 0.59601,0.22569 1.21711,0.38517 1.83821,0.54465 0.008,-0.22378 0.008,-0.22378 0.0341,-0.29 0.01,-0.22374 0.084,-0.42249 0.15945,-0.62111 0.10736,0.11632 0.30604,0.19161 0.41341,0.308 0.49571,0.49062 1.04157,0.84876 1.85433,0.70212 -0.0322,-0.31506 -0.0643,-0.63012 -0.13757,-1.03648 0.47964,0.33308 0.82684,0.616 1.03258,1.07251 0.35425,0.6642 0.98243,1.20494 1.7109,1.4808 0.13228,0.0506 0.31505,-0.0322 0.40635,-0.0733 0.1826,-0.0824 0.3903,-0.23082 0.66422,-0.35428 0.0642,0.63012 0.0373,1.30138 0.16774,1.95656 0.13051,0.65521 0.44362,1.22808 0.73165,1.86722 0.23276,-0.21475 0.41537,-0.29705 0.55682,-0.47065 0.0824,0.18261 0.1646,0.36523 0.18067,0.52275 0.0822,0.1826 0.0985,0.34017 0.0482,0.47258 -0.29387,1.17598 -0.0489,2.32884 0.28732,3.44053 0.24493,1.15286 0.62232,2.35586 1.11609,3.4515 0.49377,1.09563 1.26145,2.06782 1.93782,3.08116 0.29704,0.41537 0.61915,0.76452 0.98241,1.20496 -0.18065,-0.52274 -0.22886,-0.99533 -0.39344,-1.36053 -0.53493,-1.18693 -0.57217,-2.48832 -0.5432,-3.76461 -0.005,-0.98631 -0.0108,-1.97263 -0.0154,-2.95894 -0.016,-0.15752 0.12521,-0.3312 0.20059,-0.52982 0.10735,0.11644 0.21473,0.23275 0.32212,0.34915 0,0 0.0912,-0.0411 0.0912,-0.0411 -0.1395,-0.43144 -0.37031,-0.82172 -0.53491,-1.18693 -0.0659,-0.0258 -0.0913,0.0413 -0.15754,0.016 -0.39418,1.44089 -0.34085,2.89978 -0.37883,4.39985 -0.0322,-0.31507 -0.24688,-0.54783 -0.21279,-0.83782 -0.0463,-1.07761 -0.0925,-2.15523 -0.0475,-3.27399 0.008,-0.22377 0.24179,-0.43849 0.38323,-0.61209 0.0659,0.0258 0.0659,0.0258 0.13229,0.0506 z m 2.22143,7.73182 c 0.0411,0.0913 0.0824,0.18254 0.14852,0.20769 -0.0181,0.44747 -0.21672,0.37223 -0.61404,0.22181 0.30411,0.79664 0.60821,1.59328 1.02869,2.28257 0.93228,1.33741 2.14746,2.32761 3.45394,3.27667 0.41342,0.30799 0.85192,0.54976 1.0075,1.13873 -0.22374,-0.01 -0.47259,0.0482 -0.69634,0.0392 0.82101,2.43109 2.34736,4.59922 2.64562,7.21098 -0.1323,-0.0506 -0.23981,-0.16657 -0.23981,-0.16657 -0.52274,0.18066 -0.57098,-0.29187 -0.62817,-0.54075 -0.41854,-1.29432 -1.01968,-2.50633 -1.68705,-3.74342 -0.58506,-1.05449 -1.26145,-2.06783 -1.82143,-3.18854 -0.35426,-0.66421 -0.84998,-1.1548 -1.46207,-1.53803 -1.02552,-0.69122 -2.11726,-1.40752 -3.14278,-2.09874 -0.65324,-0.47453 -1.09879,-1.09757 -1.21323,-1.59524 -0.3864,-0.97926 -0.70657,-1.93342 -1.11804,-2.84646 -0.0984,-0.34013 -0.31312,-0.5729 -0.41147,-0.91304 -0.50084,-1.47691 -1.00168,-2.95382 -1.43627,-4.40564 -0.18067,-0.52275 -0.49377,-1.09565 -0.004,-1.59136 0.0258,-0.0659 -0.0573,-0.24882 -0.0984,-0.34014 -0.71044,-0.72335 -0.96438,-1.65246 -1.30966,-2.5404 -0.0573,-0.24885 -0.27194,-0.4816 -0.48669,-0.71436 -0.32212,-0.34915 -0.69439,-0.56583 -1.04159,-0.84875 -0.28096,-0.25785 -0.54586,-0.35817 -0.86092,-0.32602 -0.31506,0.0322 -0.69632,0.0391 -1.02746,-0.0862 -0.66224,-0.25082 -1.23318,-0.54276 -1.96361,-0.21351 -0.0915,0.0412 -0.22376,-0.008 -0.28999,-0.0341 -1.13484,-0.20258 -2.07806,-0.71119 -2.63805,-1.83191 -0.39541,-0.75548 -0.28609,-1.24414 0.4945,-1.70578 0.0913,-0.0411 0.27389,-0.12345 0.3652,-0.16459 0.61404,-0.22182 1.22808,-0.44361 1.84212,-0.66542 -0.23982,-0.16657 -0.57094,-0.29194 -0.71947,-0.49961 -0.83391,-0.99726 -1.48519,-2.07683 -1.14117,-3.38526 0.0341,-0.28998 -0.0482,-0.4726 -0.26295,-0.70534 -1.08274,-0.94006 -0.87116,-2.29864 0.085,-3.22386 0.20766,-0.14853 0.19163,-0.30605 0.20057,-0.52981 -0.0733,-0.40636 -0.12146,-0.87893 0.005,-1.21008 0.30097,-0.79468 0.84167,-1.42286 1.77078,-1.67681 1.60936,-0.45069 3.21873,-0.90134 4.80302,-1.2858 0.65519,-0.1305 1.44283,-0.21085 2.1803,-0.15875 2.30377,0.11512 4.51621,0.27146 6.79489,0.45283 0.22375,0.01 0.48863,0.10939 0.66225,0.25082 0.58701,0.44946 1.14895,0.96515 1.76104,1.34837 1.50517,1.0243 2.77757,2.26332 3.88345,3.74219 0.70143,0.94711 1.31159,1.93536 2.27089,2.6015 0.65323,0.47454 1.00748,1.13874 1.27044,1.8441 0.27903,0.86286 0.53298,1.79195 0.81199,2.65482 0.0984,0.34015 0.17166,0.74649 0.24495,1.15285 0.24494,1.15287 0.53102,2.39703 0.77596,3.54987 0.32725,1.33545 0.69563,2.76222 0.93154,4.13882 0.39857,2.34685 0.63963,4.70977 0.97198,7.03154 0.1215,0.87893 0.21792,1.82412 0.52202,2.62075 0.46869,1.16187 1.16113,2.33274 1.69604,3.51967 0.9464,2.09996 1.85164,4.10863 2.73181,6.18352 0.0411,0.0912 -0.01,0.22374 0.0322,0.31505 0,0 -0.0913,0.0411 -0.0913,0.0411 -0.10736,-0.11633 -0.21473,-0.23277 -0.29704,-0.41538 -1.14505,-2.17519 -2.29012,-4.35039 -3.43519,-6.52558 -0.58507,-1.05449 -1.17014,-2.10897 -2.00406,-3.10624 -0.25589,-0.32407 -0.42047,-0.68929 -0.55999,-1.12072 -0.18065,-0.52274 -0.0392,-0.69634 0.52469,-0.7857 -0.0964,-0.94517 -0.12662,-1.86525 -0.22304,-2.81042 -0.13755,-1.03649 -0.25005,-2.13917 -0.38761,-3.17563 -0.19478,-1.28532 -0.34843,-2.47931 -0.65959,-3.65724 -0.26101,-1.31038 -0.67954,-2.60469 -1.09807,-3.89899 -0.33625,-1.11171 -0.29121,-2.23048 -0.87627,-3.28496 -0.18968,-0.299 -0.17166,-0.74649 -0.20379,-1.06154 -0.11249,-1.10271 -0.47381,-2.14817 -1.43312,-2.81432 -0.71947,-0.49962 -1.16501,-1.12266 -1.65172,-1.837 -0.86604,-1.31234 -1.7983,-2.64975 -3.1048,-3.5988 -0.89306,-0.64107 -1.76106,-1.34837 -2.72036,-2.0145 -0.30604,-0.19161 -0.63714,-0.31706 -0.92716,-0.35106 -2.01377,-0.0811 -4.14393,-0.0548 -6.18278,-0.0696 -0.38129,0.007 -0.77864,-0.1434 -1.185,-0.0701 -1.12777,0.17871 -2.37193,0.46481 -3.52477,0.70974 -0.65519,0.13051 -1.26923,0.35232 -1.92443,0.48281 -0.65518,0.13052 -1.13678,0.40247 -1.46985,0.88211 -0.19163,0.30607 -0.16847,0.84487 0.13757,1.03648 0.41342,0.308 0.89306,0.6411 1.42286,0.84168 1.34959,0.43534 2.59374,0.14926 3.86298,-0.20305 0.34012,-0.0984 0.58896,-0.15559 0.83779,-0.2128 -0.0733,-0.40637 -0.13051,-0.65519 -0.16265,-0.97026 0.0258,-0.0659 0.14145,-0.17359 0.16658,-0.23982 0.0659,0.0258 0.1986,0.0754 0.2398,0.16658 0.10736,0.11633 0.0984,0.34013 0.11441,0.49766 0.23275,-0.21475 0.25082,-0.66223 0.57288,-0.31312 0.2559,0.32408 0.37032,0.82173 0.53492,1.18694 0.0733,0.40636 0.23788,0.77156 0.6603,0.85581 1.15991,0.13634 2.43622,0.16532 3.60515,0.0779 0.44745,0.0181 0.61402,-0.22179 0.69826,-0.64424 0.0342,-0.28995 0.0933,-0.64617 0.25976,-0.88602 0.12521,-0.33119 0.35816,-0.54587 0.80567,-0.52784 -0.14146,0.1736 -0.28274,0.34727 -0.35815,0.54586 -0.10114,0.26458 -0.29195,0.57095 -0.23475,0.81978 0.0984,0.34012 0.35426,0.66419 0.42755,1.07054 0.24492,1.15286 0.82999,2.20735 1.71406,3.07216 0.21475,0.23278 0.37232,0.21659 0.53881,-0.0232 0.0506,-0.1323 0.25784,-0.28096 0.37422,-0.38834 0.0411,0.0912 0.0411,0.0912 0.10736,0.11632 -0.10114,0.26458 -0.22553,0.59608 -0.32602,0.86093 0.066,0.0258 0.066,0.0258 0.13228,0.0506 0.11645,-0.10736 0.23277,-0.21474 0.41538,-0.29703 0.1575,-0.016 0.31507,-0.0322 0.47259,-0.0482 0.016,0.1575 0.0323,0.3151 -0.018,0.44751 -0.21672,0.37224 -0.43339,0.74453 -0.65007,1.1168 -0.36706,0.76967 -0.41926,1.50711 -0.43021,2.33591 0.007,0.38128 0.15557,0.58898 0.55293,0.73944 -0.0322,-0.31507 -0.0482,-0.4726 -0.0392,-0.69634 0.008,-0.22379 0.0179,-0.44757 0.0682,-0.57997 0.0506,-0.13228 0.27389,-0.12344 0.39027,-0.23081 0.016,0.1575 0.0573,0.24883 0.0733,0.40635 0,0 -0.0506,0.13232 -0.0258,0.0659 0.26459,0.10114 0.55488,0.13441 0.66225,0.25082 0.0659,0.0258 0.0323,0.31511 -0.0181,0.4475 0.0409,0.0912 -0.0754,0.19859 -0.10114,0.26458 -0.0258,0.0659 -0.0506,0.1323 -0.1252,0.33121 0.44046,-0.36327 0.50862,-0.94323 1.00629,-1.05766 0.54393,0.9632 -0.29386,1.17599 -0.71831,1.69677 0.57804,0.67319 0.94836,1.49491 1.13608,2.39894 -0.19859,-0.0754 -0.37232,-0.21658 -0.47964,-0.33307 -0.62817,-0.54076 -1.16504,-1.12266 -1.79319,-1.66342 -0.82685,-0.61597 -1.58747,-1.2069 -2.4143,-1.82288 -0.93421,-0.73237 -1.56945,-1.65441 -2.29597,-2.5353 -0.32213,-0.34912 -0.63719,-0.31698 -0.97731,-0.21862 -0.15751,0.016 -0.34014,0.0984 -0.58898,0.15557 0.2257,-0.59602 0.64813,-0.51179 1.12072,-0.56 -0.29704,-0.41536 -0.52787,-0.80565 -0.78375,-1.12971 -0.29703,-0.41536 -0.68539,-0.78959 -1.0075,-1.13873 -0.68536,-0.78958 -1.41192,-1.67048 -2.09729,-2.46007 -0.10736,-0.11632 -0.23082,-0.39028 -0.38834,-0.37421 -0.38128,0.007 -0.69635,0.0392 -1.03648,0.13756 -0.0659,-0.0258 -0.19162,0.30604 -0.15025,0.39744 0.18065,0.52275 0.29508,1.0204 0.59213,1.43578 0.29704,0.41536 0.61916,0.7645 1.0075,1.13872 0.28097,0.25781 0.61209,0.38324 0.94322,0.50862 0.26457,0.10114 0.57996,0.0683 0.59797,-0.37934 0.0341,-0.28999 0.21675,-0.37225 0.50669,-0.33819 0.016,0.1575 0.0984,0.34013 0.0893,0.56388 0.0141,0.76257 -1.0815,1.25634 -1.7759,0.6905 -0.78568,-0.52468 -1.48009,-1.09051 -1.91663,-1.93732 -0.20574,-0.45652 -0.52785,-0.80565 -0.82491,-1.22102 -0.0754,0.19859 0.007,0.3813 0.0232,0.53881 0.23787,0.77157 0.40953,1.51805 0.58117,2.26456 0.40637,-0.0733 0.40637,-0.0733 0.36328,0.44044 -0.01,0.22374 -0.0592,0.35622 -0.043,0.51374 0.52274,-0.18068 0.58896,-0.15559 0.54586,0.35814 -0.008,0.22377 0.0483,0.47258 0.0392,0.69634 0.18261,-0.0823 0.27391,-0.12344 0.43143,-0.13951 -0.01,0.22374 -0.0181,0.44749 0.0392,0.69633 0.82882,0.0108 0.17167,0.74649 0.38642,0.97924 0.1826,-0.0822 0.29897,-0.18964 0.5729,-0.31309 -0.018,0.4475 0.0141,0.76257 -0.02,1.05253 0.24883,-0.0573 0.40637,-0.0733 0.65518,-0.13049 -0.008,0.22376 -0.0592,0.35621 -0.0681,0.57994 -0.0592,0.35619 -0.18457,0.68734 0.0212,1.14385 0.10114,-0.26458 0.10915,-0.48869 0.15943,-0.62111 0.0506,-0.13229 0.19163,-0.30605 0.30799,-0.41343 0.0411,0.0913 0.12345,0.27393 0.13953,0.43144 0,0 0.0411,0.0913 0.0411,0.0913 0.15751,-0.016 0.27391,-0.12345 0.43144,-0.13951 -0.01,0.22375 -0.0592,0.35619 -0.043,0.51374 -0.01,0.22373 -0.0843,0.42243 -0.11836,0.7124 0.44044,-0.36327 0.64105,-0.89305 1.21202,-0.60115 -0.25784,0.28098 -0.60699,0.60309 -0.73236,0.93422 -0.21674,0.37226 -0.23474,0.81976 -0.0289,1.27629 0.0506,-0.13227 0.0506,-0.13227 0.0754,-0.19858 0.0506,-0.1323 0.16633,-0.23991 0.21658,-0.37233 0.10736,0.11632 0.21474,0.23275 0.23082,0.39029 0.0573,0.24883 0.0893,0.56388 0.1215,0.87893 0.308,-0.4134 -0.0964,-0.94515 0.54276,-1.23317 0.0392,0.69635 0.0122,1.36761 0.0765,1.9977 0.11645,-0.10735 0.0754,-0.19857 0.12522,-0.33119 0.0341,-0.28997 0.15945,-0.6211 0.44946,-0.58702 0.42239,0.0843 0.2308,0.3903 0.2218,0.61404 -0.0341,0.28998 -0.0683,0.57997 -0.10222,0.86995 0.18243,-0.0824 0.16657,-0.23981 0.25785,-0.28097 0.14145,-0.1736 0.32406,-0.2559 0.53172,-0.40443 0.016,0.15751 0.0984,0.34014 0.11441,0.49767 0.0232,0.53882 -0.02,1.05254 -0.063,1.56628 0.1665,-0.23983 0.24147,-0.43862 0.34203,-0.70343 0.0506,-0.13228 0.20767,-0.14851 0.29898,-0.18967 0.0411,0.0913 0.0824,0.1826 0.12344,0.27393 -0.027,0.67124 -0.0289,1.27628 -0.0561,1.94754 -0.01,0.22375 0.13052,0.65519 -0.0108,0.82879 -0.30799,0.41342 -0.25976,0.88602 -0.18651,1.29235 0.10544,0.72142 0.11956,1.48399 0.0674,2.22148 -0.0682,0.57995 -0.0702,1.18499 -0.0721,1.79003 0.0913,-0.0412 0.0913,-0.0412 0.15751,-0.016 0.0258,-0.0659 -0.0161,-0.15755 0.008,-0.22377 0.0683,-0.57994 0.13636,-1.15992 0.20451,-1.73987 0.0506,-0.13228 0.23276,-0.21475 0.34915,-0.32211 0.016,0.1575 0.12345,0.2739 0.13951,0.43142 -0.0681,0.57997 -0.20257,1.13484 -0.17945,1.67366 -0.036,0.895 -0.0721,1.79003 0.36449,2.63682 z"
           id="path5799" />
        <g
           id="g6459"
           transform="matrix(0.45394028,0,0,0.43150924,98.277268,151.68065)">
          <g
             id="g6455">
            <path
               style="fill:none;fill-rule:evenodd;stroke:#000000;stroke-width:0.68372518px;stroke-linecap:butt;stroke-linejoin:miter;stroke-opacity:1"
               d="m 167.79845,386.27948 c 68.23603,58.34124 67.90627,58.40702 67.90627,58.40702 l 48.3575,-59.4228 z m 116.3709,-0.18824 C 198.77803,306.48382 198.77803,307.0915 198.77803,307.0915 l 0,0 m 1.81685,2.43077 -33.30868,77.78436"
               id="path6451"
               inkscape:connector-curvature="0" />
            <path
               style="fill:none;fill-rule:evenodd;stroke:#000000;stroke-width:1px;stroke-linecap:butt;stroke-linejoin:miter;stroke-opacity:1"
               d="m 198.99492,307.04689 35.404,134.29105"
               id="path6453"
               inkscape:connector-curvature="0" />
          </g>
        </g>
        <path
           style="fill:none;fill-rule:evenodd;stroke:#000000;stroke-width:1px;stroke-linecap:butt;stroke-linejoin:miter;stroke-opacity:1"
           d="m 227.39677,318.84431 c 26.44148,10.26552 26.75256,10.26552 26.75256,10.26552 m -79.94661,-10.26552 77.76908,9.64337"
           id="path6466"
           inkscape:connector-curvature="0" />
        <path
           style="fill:none;fill-rule:evenodd;stroke:#000000;stroke-width:1px;stroke-linecap:butt;stroke-linejoin:miter;stroke-opacity:1"
           d="m 205.62143,342.48611 48.5279,-13.99843"
           id="path6468"
           inkscape:connector-curvature="0" />
        <path
           sodipodi:type="star"
           style="opacity:1;fill:none;fill-opacity:1;stroke:#000000;stroke-width:1;stroke-linecap:square;stroke-linejoin:miter;stroke-miterlimit:4;stroke-dasharray:none;stroke-dashoffset:0;stroke-opacity:1"
           id="path6482"
           sodipodi:sides="5"
           sodipodi:cx="173.89165"
           sodipodi:cy="319.1554"
           sodipodi:r1="1.9147749"
           sodipodi:r2="5.9836717"
           sodipodi:arg1="1.0838971"
           sodipodi:arg2="1.7122156"
           inkscape:flatsided="false"
           inkscape:rounded="0"
           inkscape:randomized="0"
           d="m 174.78755,320.84765 -1.73929,4.23168 -0.48919,-4.54895 -4.56204,-0.3465 4.17514,-1.87095 -1.08021,-4.44583 3.06957,3.39264 3.89444,-2.40118 -2.27804,3.96772 3.48709,2.96182 z"
           inkscape:transform-center-x="-0.2606215"
           inkscape:transform-center-y="-0.31781983" />
        <path
           inkscape:transform-center-y="-0.31781983"
           inkscape:transform-center-x="-0.2606215"
           d="m 205.89518,345.1116 -1.73929,4.23168 -0.48919,-4.54895 -4.56204,-0.3465 4.17514,-1.87095 -1.0802,-4.44583 3.06957,3.39263 3.89443,-2.40117 -2.27804,3.96772 3.4871,2.96182 z"
           inkscape:randomized="0"
           inkscape:rounded="0"
           inkscape:flatsided="false"
           sodipodi:arg2="1.7122156"
           sodipodi:arg1="1.0838971"
           sodipodi:r2="5.9836717"
           sodipodi:r1="1.9147749"
           sodipodi:cy="343.41934"
           sodipodi:cx="204.99928"
           sodipodi:sides="5"
           id="path6506"
           style="opacity:1;fill:none;fill-opacity:1;stroke:#000000;stroke-width:1;stroke-linecap:square;stroke-linejoin:miter;stroke-miterlimit:4;stroke-dasharray:none;stroke-dashoffset:0;stroke-opacity:1"
           sodipodi:type="star" />
        <path
           sodipodi:type="star"
           style="opacity:1;fill:none;fill-opacity:1;stroke:#000000;stroke-width:1;stroke-linecap:square;stroke-linejoin:miter;stroke-miterlimit:4;stroke-dasharray:none;stroke-dashoffset:0;stroke-opacity:1"
           id="path6508"
           sodipodi:sides="5"
           sodipodi:cx="204.99928"
           sodipodi:cy="343.41934"
           sodipodi:r1="1.9147749"
           sodipodi:r2="5.9836717"
           sodipodi:arg1="1.0838971"
           sodipodi:arg2="1.7122156"
           inkscape:flatsided="false"
           inkscape:rounded="0"
           inkscape:randomized="0"
           d="m 205.89518,345.1116 -1.73929,4.23168 -0.48919,-4.54895 -4.56204,-0.3465 4.17514,-1.87095 -1.0802,-4.44583 3.06957,3.39263 3.89443,-2.40117 -2.27804,3.96772 3.4871,2.96182 z"
           inkscape:transform-center-x="-0.2606215"
           inkscape:transform-center-y="-0.31781983" />
        <path
           inkscape:transform-center-y="-0.31781983"
           inkscape:transform-center-x="-0.2606215"
           d="m 227.98159,318.67013 -1.73929,4.23168 -0.48919,-4.54895 -4.56204,-0.3465 4.17514,-1.87095 -1.0802,-4.44583 3.06957,3.39264 3.89443,-2.40118 -2.27804,3.96772 3.4871,2.96182 z"
           inkscape:randomized="0"
           inkscape:rounded="0"
           inkscape:flatsided="false"
           sodipodi:arg2="1.7122156"
           sodipodi:arg1="1.0838971"
           sodipodi:r2="5.9836717"
           sodipodi:r1="1.9147749"
           sodipodi:cy="316.97787"
           sodipodi:cx="227.08569"
           sodipodi:sides="5"
           id="path6510"
           style="opacity:1;fill:none;fill-opacity:1;stroke:#000000;stroke-width:1;stroke-linecap:square;stroke-linejoin:miter;stroke-miterlimit:4;stroke-dasharray:none;stroke-dashoffset:0;stroke-opacity:1"
           sodipodi:type="star" />
      </g>
      <g
         transform="matrix(3.1383194,0,0,3.1383194,-467.41426,-737.39874)"
         id="g6588">
        <g
           transform="matrix(0.51074323,0.01734973,-0.01802224,0.49168478,167.90869,316.74479)"
           id="g6530">
          <path
             id="path6532"
             d="m 35.868,48 c 0,6.69 5.443,12.131 12.132,12.131 6.69,0 12.131,-5.44 12.131,-12.131 0,-6.689 -5.44,-12.131 -12.131,-12.131 -6.688,0 -12.132,5.442 -12.132,12.131 z m 7.949,-7.68 1.942,3.364 -0.378,0.218 -1.942,-3.363 0.378,-0.219 z m -1.845,1.344 2.747,2.748 -0.31,0.309 -2.747,-2.748 0.31,-0.309 z m -1.434,1.776 3.364,1.943 -0.219,0.378 -3.364,-1.943 0.219,-0.378 z m -0.927,2.086 3.753,1.005 -0.113,0.423 -3.753,-1.006 0.113,-0.422 z m -0.354,2.693 0,-0.438 3.886,0 0,0.438 -3.886,0 z m 0.241,1.832 3.753,-1.005 0.113,0.422 -3.753,1.006 -0.113,-0.423 z m 0.82,2.132 3.364,-1.942 0.219,0.378 -3.364,1.942 -0.219,-0.378 z m 1.345,1.843 2.747,-2.747 0.31,0.309 -2.748,2.747 -0.309,-0.309 z m 1.775,1.435 1.943,-3.365 0.378,0.219 -1.942,3.365 -0.379,-0.219 z m 2.509,1.04 -0.423,-0.113 1.005,-3.753 0.423,0.113 -1.005,3.753 z m 0.584,-13.136 -1.006,-3.752 0.422,-0.113 1.006,3.753 -0.422,0.112 z m 1.686,13.376 -0.437,0 0,-3.885 0.437,0 0,3.885 z m 1.834,-0.24 -1.005,-3.753 0.422,-0.113 1.005,3.753 -0.422,0.113 z m 2.13,-0.821 -1.942,-3.365 0.378,-0.218 1.943,3.364 -0.379,0.219 z m 1.843,-1.345 -2.747,-2.746 0.31,-0.31 2.746,2.747 -0.309,0.309 z m 1.437,-1.775 -3.365,-1.941 0.219,-0.379 3.365,1.942 -0.219,0.378 z m 0.926,-2.085 -3.754,-1.006 0.113,-0.422 3.753,1.006 -0.112,0.422 z m 0.352,-2.694 0,0.438 -3.884,0 0,-0.438 3.884,0 z m -0.24,-1.833 -3.753,1.005 -0.112,-0.422 3.753,-1.005 0.112,0.422 z m -0.82,-2.129 -3.364,1.942 -0.219,-0.378 3.364,-1.942 0.219,0.378 z m -1.346,-1.845 -2.747,2.748 -0.309,-0.31 2.747,-2.747 0.309,0.309 z m -1.775,-1.434 -1.941,3.364 -0.378,-0.219 1.942,-3.364 0.377,0.219 z M 50.05,39.5 50.473,39.613 49.467,43.365 49.045,43.252 50.05,39.5 Z m -1.833,3.644 -0.437,0 0,-3.885 0.437,0 0,3.885 z"
             inkscape:connector-curvature="0" />
          <path
             id="path6534"
             d="M 88.317,47.614 C 88.138,47.465 70.016,32.759 48,32.759 25.983,32.759 7.862,47.466 7.682,47.614 L 7.213,48 7.682,48.386 c 0.18,0.148 18.301,14.855 40.318,14.855 22.016,0 40.138,-14.707 40.317,-14.855 L 88.787,48 88.317,47.614 Z M 48,62.241 C 28.354,62.241 11.832,50.316 8.81,48 11.832,45.684 28.354,33.759 48,33.759 67.646,33.759 84.168,45.684 87.189,48 84.17,50.316 67.656,62.241 48,62.241 Z"
             inkscape:connector-curvature="0" />
        </g>
        <path
           id="path6536"
           d="m 278.20846,356.32859 c -0.0202,-0.46986 -0.0404,-0.93968 -0.003,-1.38769 -0.88195,0.0623 -1.70615,0.14629 -2.41317,-0.25349 -0.55567,-0.27636 -1.08939,-0.61062 -1.54353,-0.98068 -0.20914,-0.14519 -0.28882,-0.10919 -0.41211,0.042 -0.51529,0.66327 -0.44523,1.35011 0.0947,2.01676 0.29491,0.44186 0.72102,0.53717 1.19086,0.51705 0.66496,-0.0123 1.34397,0.11274 2.00893,0.1004 0.36838,0.0735 0.72271,0.009 1.07708,-0.0544 z m 7.10895,-1.3359 c -0.93355,0.37284 -1.92315,0.19618 -3.07198,0.0913 0.24501,0.22483 0.46814,0.50743 0.67728,0.65266 1.02378,0.78386 1.75097,1.65349 2.31106,2.79002 0.2293,0.61509 0.71932,1.06475 1.34672,1.50042 0.25458,-0.49787 0.48727,-0.938 0.74183,-1.43589 0.0657,-0.17318 -0.006,-0.33231 -0.17941,-0.39808 -0.88026,-0.4654 -1.26095,-1.20383 -1.51828,-2.09364 -0.0639,-0.35436 -0.18556,-0.73057 -0.30722,-1.1068 z m -7.85762,4.88236 c 0.28258,-0.22314 0.42781,-0.43227 0.68853,-0.59767 0.0575,0.0225 0.30277,0.24671 0.37454,0.40594 0.38067,0.73845 0.96432,1.28963 1.8603,1.36476 -0.67558,-1.18026 -1.3293,-2.41826 -1.98303,-3.65627 -1.35967,0.2775 -2.7771,0.53313 -4.11149,-0.30233 -0.25458,0.49787 -0.13462,1.40172 0.30552,1.6344 0.89434,0.60262 1.91197,1.05399 2.86592,1.15046 z m 7.66047,9.23945 c -0.0719,-0.15924 -0.14352,-0.31848 -0.1138,-0.57135 -0.52485,1.386 -0.6017,2.80957 -0.34606,4.22699 -0.28883,-0.1092 -0.28883,-0.1092 -0.3807,-0.73843 -0.0281,-0.27473 -0.11379,-0.57133 -0.1777,-0.92569 -0.14499,0.20923 -0.18887,0.32466 -0.23268,0.44015 -0.0575,-0.0225 -0.0796,0.0359 -0.13736,0.0139 -0.28704,-0.63694 -0.11826,-1.43143 -0.2242,-2.19789 -0.12335,0.15138 -0.1671,0.26688 -0.31232,0.47602 -0.0718,-0.15923 -0.0858,-0.2966 -0.12165,-0.37624 0.009,-0.72272 0.19235,-1.37982 0.60616,-1.94946 0.0441,-0.11537 0.12334,-0.15139 0.20297,-0.18729 0.13734,-0.014 0.25286,0.0297 0.39022,0.0158 -0.0225,0.0575 -0.007,0.19515 -0.0516,0.31063 -0.0441,0.11536 -0.12329,0.15142 -0.1671,0.26687 0.21698,-0.05 0.37622,-0.12165 0.59321,-0.17154 -0.3448,-0.65881 -0.66773,-1.37537 -1.0344,-1.97645 -0.53207,-0.86177 -1.14376,-1.68769 -1.6758,-2.54946 -0.0936,-0.10144 -0.16542,-0.26074 -0.23717,-0.41998 -0.05,-0.217 -0.17941,-0.39807 -0.5119,-0.39192 -0.44799,-0.0377 -0.90998,-0.21253 -1.29235,-0.42336 -0.53378,-0.33416 -1.00978,-0.64649 -1.54355,-0.98066 -0.15139,-0.12336 -0.40425,-0.15307 -0.59935,-0.16094 -0.78049,-0.0314 -1.56095,-0.0629 -2.32741,0.0432 -0.60723,0.0342 -1.2223,0.26347 -1.65011,0.69575 -0.42783,0.43228 -0.42164,0.76474 0.15585,0.98345 0.51974,0.19681 1.06135,0.33588 1.60296,0.47495 0.007,-0.19514 0.007,-0.19514 0.0297,-0.25289 0.009,-0.19511 0.0733,-0.36842 0.13904,-0.54162 0.0936,0.10143 0.26688,0.16709 0.36051,0.26858 0.43227,0.42783 0.90827,0.74014 1.61701,0.61227 -0.0281,-0.27474 -0.0561,-0.54948 -0.11996,-0.90384 0.41826,0.29046 0.72102,0.53717 0.90043,0.93525 0.30892,0.5792 0.8567,1.05074 1.49194,1.2913 0.11536,0.0441 0.27474,-0.0281 0.35435,-0.0639 0.15923,-0.0719 0.34035,-0.20128 0.57922,-0.30894 0.056,0.54948 0.0325,1.13483 0.14627,1.70616 0.11381,0.57136 0.38685,1.07091 0.63801,1.62826 0.20298,-0.18727 0.36222,-0.25904 0.48556,-0.41042 0.0719,0.15924 0.14354,0.31849 0.15755,0.45585 0.0717,0.15923 0.0859,0.29664 0.042,0.4121 -0.25626,1.02548 -0.0426,2.0308 0.25055,3.00022 0.21359,1.00532 0.54268,2.05436 0.97326,3.00979 0.43058,0.95541 1.10001,1.80318 1.68982,2.68684 0.25903,0.36221 0.53991,0.66668 0.85668,1.05075 -0.15753,-0.45584 -0.19957,-0.86795 -0.34308,-1.18641 -0.46647,-1.03503 -0.49895,-2.16987 -0.47369,-3.28283 -0.004,-0.86008 -0.009,-1.72018 -0.0134,-2.58026 -0.014,-0.13736 0.10919,-0.28881 0.17492,-0.46202 0.0936,0.10154 0.18725,0.20297 0.2809,0.30447 0,0 0.0795,-0.0358 0.0795,-0.0358 -0.12165,-0.37622 -0.32292,-0.71656 -0.46646,-1.03503 -0.0575,-0.0225 -0.0796,0.036 -0.13737,0.014 -0.34374,1.25649 -0.29723,2.52868 -0.33035,3.83677 -0.0281,-0.27475 -0.21529,-0.47772 -0.18556,-0.7306 -0.0404,-0.9397 -0.0807,-1.8794 -0.0414,-2.85499 0.007,-0.19513 0.21084,-0.38237 0.33418,-0.53375 0.0575,0.0225 0.0575,0.0225 0.11536,0.0441 z m 1.93713,6.74232 c 0.0358,0.0796 0.0719,0.15918 0.12952,0.18111 -0.0158,0.3902 -0.18899,0.32459 -0.53546,0.19342 0.26519,0.69469 0.53037,1.38938 0.89704,1.99045 0.81297,1.16625 1.87263,2.02973 3.01191,2.85733 0.36052,0.26858 0.7429,0.47941 0.87857,0.993 -0.19511,-0.009 -0.41211,0.042 -0.60723,0.0342 0.71594,2.11997 2.04695,4.01063 2.30704,6.28814 -0.11537,-0.0441 -0.20912,-0.14525 -0.20912,-0.14525 -0.45584,0.15754 -0.4979,-0.25452 -0.54777,-0.47155 -0.36498,-1.12867 -0.88919,-2.18557 -1.47115,-3.26434 -0.51019,-0.91954 -1.10001,-1.8032 -1.58833,-2.78048 -0.30892,-0.57921 -0.7412,-1.00701 -1.27496,-1.3412 -0.89427,-0.60276 -1.84629,-1.22739 -2.74057,-1.83015 -0.56964,-0.4138 -0.95817,-0.9571 -1.05796,-1.39108 -0.33695,-0.85394 -0.61615,-1.68599 -0.97496,-2.48218 -0.0858,-0.2966 -0.27305,-0.49958 -0.35881,-0.79619 -0.43675,-1.2879 -0.87349,-2.5758 -1.25246,-3.84182 -0.15755,-0.45585 -0.43058,-0.95543 -0.003,-1.3877 0.0225,-0.0575 -0.05,-0.21698 -0.0858,-0.29661 -0.61952,-0.63078 -0.84096,-1.44098 -1.14205,-2.21529 -0.05,-0.217 -0.23714,-0.41996 -0.4244,-0.62293 -0.2809,-0.30447 -0.60553,-0.49342 -0.90829,-0.74013 -0.24501,-0.22485 -0.47601,-0.31234 -0.75075,-0.2843 -0.27474,0.0281 -0.6072,0.0341 -0.89596,-0.0752 -0.57749,-0.21872 -1.07536,-0.4733 -1.71232,-0.18618 -0.0798,0.0359 -0.19512,-0.007 -0.25287,-0.0297 -0.98961,-0.17665 -1.81212,-0.62017 -2.30044,-1.59747 -0.34481,-0.65879 -0.24948,-1.08491 0.43121,-1.48748 0.0796,-0.0358 0.23884,-0.10765 0.31847,-0.14352 0.53545,-0.19343 1.07091,-0.38684 1.60637,-0.58026 -0.20913,-0.14526 -0.49788,-0.25458 -0.6274,-0.43567 -0.72719,-0.86964 -1.29512,-1.81105 -0.99512,-2.95203 0.0297,-0.25287 -0.042,-0.41211 -0.2293,-0.61507 -0.94418,-0.81975 -0.75967,-2.00446 0.0741,-2.81128 0.18108,-0.12952 0.1671,-0.26688 0.1749,-0.462 -0.0639,-0.35436 -0.10592,-0.76645 0.004,-1.05522 0.26245,-0.69298 0.73396,-1.24077 1.54416,-1.46222 1.4034,-0.39301 2.80681,-0.78599 4.18834,-1.12124 0.57134,-0.1138 1.25818,-0.18387 1.90127,-0.13844 2.00894,0.10039 3.93824,0.23672 5.9253,0.39488 0.19511,0.009 0.4261,0.0954 0.5775,0.21872 0.51188,0.39194 1.00191,0.84163 1.53566,1.17581 1.31254,0.89321 2.42211,1.97367 3.38646,3.26327 0.61166,0.82591 1.14373,1.68768 1.98027,2.26857 0.56963,0.41381 0.87854,0.99301 1.10785,1.6081 0.24332,0.75243 0.46477,1.56262 0.70807,2.31506 0.0858,0.29662 0.14969,0.65096 0.2136,1.00531 0.2136,1.00533 0.46306,2.09027 0.67666,3.09557 0.28537,1.16454 0.6066,2.40872 0.81232,3.60914 0.34756,2.04651 0.55777,4.10703 0.84759,6.13166 0.10595,0.76645 0.19003,1.59068 0.45521,2.28536 0.40871,1.01317 1.01253,2.0342 1.47899,3.06923 0.82528,1.83121 1.61467,3.58281 2.3822,5.39217 0.0358,0.0795 -0.009,0.1951 0.0281,0.27473 0,0 -0.0796,0.0358 -0.0796,0.0358 -0.0936,-0.10145 -0.18725,-0.20298 -0.25902,-0.36222 -0.99851,-1.89682 -1.99704,-3.79364 -2.99557,-5.69046 -0.51019,-0.91954 -1.02039,-1.83907 -1.74758,-2.70871 -0.22314,-0.28259 -0.36666,-0.60107 -0.48833,-0.97729 -0.15753,-0.45584 -0.0342,-0.60722 0.45754,-0.68515 -0.0841,-0.82421 -0.11041,-1.62654 -0.19449,-2.45075 -0.11995,-0.90384 -0.21805,-1.8654 -0.33801,-2.76922 -0.16985,-1.12083 -0.30383,-2.16201 -0.57517,-3.18919 -0.22761,-1.14269 -0.59258,-2.27135 -0.95754,-3.40001 -0.29322,-0.96944 -0.25395,-1.94503 -0.76413,-2.86456 -0.16541,-0.26073 -0.14969,-0.65096 -0.17771,-0.92569 -0.0981,-0.96158 -0.41317,-1.87325 -1.24971,-2.45415 -0.6274,-0.43568 -1.01592,-0.97898 -1.44034,-1.6019 -0.75521,-1.14439 -1.56816,-2.31064 -2.70746,-3.13824 -0.77876,-0.55902 -1.53568,-1.17581 -2.37221,-1.75669 -0.26688,-0.16708 -0.5556,-0.27648 -0.80851,-0.30613 -1.75605,-0.0707 -3.6136,-0.0478 -5.39152,-0.0607 -0.33249,0.006 -0.67899,-0.12505 -1.03335,-0.0611 -0.98344,0.15584 -2.06837,0.40532 -3.07367,0.61891 -0.57134,0.11381 -1.1068,0.30723 -1.67815,0.42102 -0.57133,0.11382 -0.9913,0.35096 -1.28174,0.76922 -0.16711,0.2669 -0.14691,0.73675 0.11996,0.90383 0.36051,0.26859 0.77877,0.55906 1.24077,0.73397 1.17687,0.37962 2.2618,0.13016 3.3686,-0.17707 0.2966,-0.0858 0.51359,-0.13567 0.73057,-0.18556 -0.0639,-0.35437 -0.1138,-0.57134 -0.14183,-0.84609 0.0225,-0.0575 0.12335,-0.15138 0.14526,-0.20913 0.0575,0.0225 0.17319,0.0657 0.20911,0.14526 0.0936,0.10144 0.0858,0.2966 0.0998,0.43397 0.20296,-0.18726 0.21872,-0.57748 0.49956,-0.27305 0.22316,0.28261 0.32293,0.71657 0.46647,1.03504 0.0639,0.35436 0.20743,0.67282 0.57579,0.74629 1.01147,0.11889 2.12444,0.14416 3.14378,0.0679 0.39018,0.0158 0.53543,-0.19341 0.60889,-0.56179 0.0298,-0.25285 0.0814,-0.56348 0.22652,-0.77263 0.10919,-0.28881 0.31232,-0.47601 0.70256,-0.46029 -0.12335,0.15138 -0.24655,0.30283 -0.31231,0.476 -0.0882,0.23072 -0.25459,0.49788 -0.20471,0.71487 0.0858,0.29659 0.30892,0.57919 0.37283,0.93353 0.21358,1.00532 0.72377,1.92486 1.4947,2.679 0.18727,0.20299 0.32467,0.18887 0.46986,-0.0202 0.0441,-0.11537 0.22484,-0.24501 0.32633,-0.33865 0.0358,0.0795 0.0358,0.0795 0.0936,0.10144 -0.0882,0.23072 -0.19667,0.51979 -0.2843,0.75075 0.0575,0.0225 0.0575,0.0225 0.11535,0.0441 0.10155,-0.0936 0.20298,-0.18726 0.36222,-0.25901 0.13734,-0.014 0.27475,-0.0281 0.41211,-0.042 0.014,0.13735 0.0282,0.27478 -0.0157,0.39024 -0.18898,0.3246 -0.37792,0.64925 -0.56687,0.97388 -0.32009,0.67117 -0.36561,1.31423 -0.37516,2.03696 0.006,0.33249 0.13567,0.51361 0.48217,0.64481 -0.0281,-0.27475 -0.042,-0.41212 -0.0342,-0.60722 0.007,-0.19515 0.0156,-0.39029 0.0595,-0.50575 0.0441,-0.11535 0.23884,-0.10764 0.34033,-0.20127 0.014,0.13734 0.05,0.21698 0.0639,0.35435 0,0 -0.0441,0.11538 -0.0225,0.0575 0.23072,0.0882 0.48386,0.11721 0.57749,0.21872 0.0575,0.0225 0.0282,0.27479 -0.0158,0.39023 0.0357,0.0795 -0.0658,0.17318 -0.0882,0.23072 -0.0225,0.0575 -0.0441,0.11537 -0.10917,0.28882 0.38409,-0.31677 0.44352,-0.82251 0.8775,-0.9223 0.47432,0.83993 -0.25625,1.02549 -0.62638,1.47962 0.50406,0.58704 0.82699,1.3036 0.99069,2.09193 -0.17318,-0.0658 -0.32467,-0.18886 -0.41826,-0.29044 -0.54778,-0.47156 -1.01594,-0.97899 -1.5637,-1.45054 -0.72103,-0.53714 -1.38431,-1.05245 -2.10532,-1.58959 -0.81466,-0.63865 -1.3686,-1.44269 -2.00214,-2.21084 -0.28091,-0.30444 -0.55565,-0.27642 -0.85224,-0.19064 -0.13735,0.014 -0.29661,0.0858 -0.5136,0.13566 0.19681,-0.51975 0.56518,-0.4463 0.97729,-0.48834 -0.25902,-0.3622 -0.46031,-0.70254 -0.68345,-0.98513 -0.25901,-0.3622 -0.59767,-0.68854 -0.87856,-0.993 -0.59765,-0.68853 -1.23123,-1.45669 -1.82888,-2.14523 -0.0936,-0.10144 -0.20128,-0.34034 -0.33864,-0.32632 -0.33249,0.006 -0.60724,0.0342 -0.90384,0.11995 -0.0575,-0.0225 -0.1671,0.26688 -0.13102,0.34658 0.15753,0.45585 0.25732,0.88981 0.51635,1.25203 0.25903,0.36221 0.53992,0.66666 0.87856,0.99299 0.24502,0.22482 0.53376,0.3342 0.82251,0.44353 0.23071,0.0882 0.50574,0.0596 0.52145,-0.33079 0.0297,-0.25288 0.18901,-0.32461 0.44184,-0.29491 0.014,0.13734 0.0858,0.2966 0.0779,0.49171 0.0123,0.66498 -0.94309,1.09556 -1.54862,0.60213 -0.68513,-0.45753 -1.29067,-0.95094 -1.67135,-1.68938 -0.17941,-0.3981 -0.46029,-0.70255 -0.71934,-1.06476 -0.0658,0.17318 0.006,0.3325 0.0202,0.46986 0.20743,0.67282 0.35712,1.32377 0.5068,1.97474 0.35436,-0.0639 0.35436,-0.0639 0.31679,0.38408 -0.009,0.1951 -0.0516,0.31063 -0.0375,0.44799 0.45584,-0.15756 0.51359,-0.13568 0.476,0.31231 -0.007,0.19513 0.0421,0.4121 0.0342,0.60722 0.15924,-0.0718 0.23886,-0.10764 0.37622,-0.12166 -0.009,0.19511 -0.0158,0.39023 0.0342,0.60722 0.72275,0.009 0.1497,0.65096 0.33697,0.85392 0.15923,-0.0717 0.26071,-0.16537 0.49958,-0.27302 -0.0157,0.39023 0.0123,0.66498 -0.0174,0.91783 0.21699,-0.05 0.35437,-0.0639 0.57133,-0.11379 -0.007,0.19512 -0.0516,0.31062 -0.0594,0.50572 -0.0516,0.3106 -0.16095,0.59937 0.0185,0.99746 0.0882,-0.23072 0.0952,-0.42615 0.13902,-0.54162 0.0441,-0.11536 0.16711,-0.26688 0.26858,-0.36052 0.0358,0.0796 0.10765,0.23887 0.12167,0.37622 0,0 0.0358,0.0796 0.0358,0.0796 0.13735,-0.0139 0.23886,-0.10765 0.37623,-0.12166 -0.009,0.19512 -0.0516,0.31061 -0.0375,0.448 -0.009,0.19509 -0.0735,0.36836 -0.10321,0.62122 0.38407,-0.31677 0.55901,-0.77875 1.05691,-0.52421 -0.22485,0.24502 -0.52931,0.52591 -0.63864,0.81466 -0.189,0.32462 -0.2047,0.71485 -0.0252,1.11295 0.0441,-0.11534 0.0441,-0.11534 0.0657,-0.17316 0.0441,-0.11537 0.14504,-0.20921 0.18886,-0.32468 0.0936,0.10143 0.18726,0.20296 0.20128,0.34034 0.05,0.21698 0.0779,0.49171 0.10595,0.76644 0.26859,-0.36049 -0.0841,-0.82419 0.4733,-1.07535 0.0342,0.60724 0.0106,1.19259 0.0667,1.74204 0.10155,-0.0936 0.0658,-0.17316 0.1092,-0.2888 0.0297,-0.25286 0.13904,-0.54162 0.39194,-0.5119 0.36833,0.0735 0.20126,0.34035 0.19341,0.53546 -0.0297,0.25287 -0.0596,0.50575 -0.0891,0.75862 0.15909,-0.0719 0.14526,-0.20912 0.22485,-0.24502 0.12335,-0.15138 0.28259,-0.22315 0.46368,-0.35267 0.014,0.13735 0.0858,0.29661 0.0998,0.43398 0.0202,0.46986 -0.0174,0.91784 -0.0549,1.36583 0.14519,-0.20914 0.21056,-0.38248 0.29825,-0.61341 0.0441,-0.11535 0.1811,-0.1295 0.26072,-0.16539 0.0358,0.0796 0.0719,0.15923 0.10764,0.23887 -0.0235,0.58534 -0.0252,1.11295 -0.0489,1.6983 -0.009,0.19512 0.11382,0.57134 -0.009,0.72272 -0.26858,0.36052 -0.22652,0.77263 -0.16265,1.12696 0.0919,0.6291 0.10426,1.29407 0.0588,1.93718 -0.0595,0.50573 -0.0612,1.03334 -0.0629,1.56095 0.0796,-0.0359 0.0796,-0.0359 0.13735,-0.014 0.0225,-0.0575 -0.014,-0.13739 0.007,-0.19514 0.0596,-0.50572 0.11891,-1.01147 0.17834,-1.5172 0.0441,-0.11535 0.20297,-0.18727 0.30447,-0.28089 0.014,0.13734 0.10765,0.23885 0.12165,0.37621 -0.0594,0.50575 -0.17664,0.98961 -0.15648,1.45947 -0.0314,0.78046 -0.0629,1.56094 0.31784,2.29936 z"
           inkscape:connector-curvature="0" />
        <g
           transform="matrix(0.16412701,-0.38056663,0.31271641,0.18048572,82.342369,362.84183)"
           id="g6538">
          <g
             id="g6540">
            <path
               inkscape:connector-curvature="0"
               id="path6542"
               d="m 167.79845,386.27948 c 68.23603,58.34124 67.90627,58.40702 67.90627,58.40702 l 48.3575,-59.4228 z m 116.3709,-0.18824 C 198.77803,306.48382 198.77803,307.0915 198.77803,307.0915 l 0,0 m 1.81685,2.43077 -33.30868,77.78436"
               style="fill:none;fill-rule:evenodd;stroke:#000000;stroke-width:0.68372518px;stroke-linecap:butt;stroke-linejoin:miter;stroke-opacity:1" />
            <path
               inkscape:connector-curvature="0"
               id="path6544"
               d="m 198.99492,307.04689 35.404,134.29105"
               style="fill:none;fill-rule:evenodd;stroke:#000000;stroke-width:1px;stroke-linecap:butt;stroke-linejoin:miter;stroke-opacity:1" />
          </g>
        </g>
        <path
           inkscape:transform-center-y="-0.31781983"
           inkscape:transform-center-x="-0.2606215"
           d="m 259.05755,354.34418 -1.5167,3.69013 -0.42659,-3.96679 -3.97819,-0.30216 3.64081,-1.63151 -0.94196,-3.87686 2.67673,2.95845 3.39604,-2.09388 -1.98651,3.45994 3.04083,2.58278 z"
           inkscape:randomized="0"
           inkscape:rounded="0"
           inkscape:flatsided="false"
           sodipodi:arg2="1.7122156"
           sodipodi:arg1="1.0838971"
           sodipodi:r2="5.217896"
           sodipodi:r1="1.6697267"
           sodipodi:cy="352.8685"
           sodipodi:cx="258.27631"
           sodipodi:sides="5"
           id="path6550"
           style="opacity:1;fill:none;fill-opacity:1;stroke:#000000;stroke-width:0.87202245;stroke-linecap:square;stroke-linejoin:miter;stroke-miterlimit:4;stroke-dasharray:none;stroke-dashoffset:0;stroke-opacity:1"
           sodipodi:type="star" />
        <path
           inkscape:transform-center-y="-0.31781983"
           inkscape:transform-center-x="-0.2606215"
           d="m 251.03248,326.35282 -1.5167,3.69012 -0.42659,-3.96678 -3.97819,-0.30216 3.64081,-1.63151 -0.94196,-3.87687 2.67673,2.95846 3.39603,-2.09388 -1.9865,3.45994 3.04083,2.58278 z"
           inkscape:randomized="0"
           inkscape:rounded="0"
           inkscape:flatsided="false"
           sodipodi:arg2="1.7122156"
           sodipodi:arg1="1.0838971"
           sodipodi:r2="5.217896"
           sodipodi:r1="1.6697267"
           sodipodi:cy="324.87714"
           sodipodi:cx="250.25124"
           sodipodi:sides="5"
           id="path6554"
           style="opacity:1;fill:none;fill-opacity:1;stroke:#000000;stroke-width:0.87202245;stroke-linecap:square;stroke-linejoin:miter;stroke-miterlimit:4;stroke-dasharray:none;stroke-dashoffset:0;stroke-opacity:1"
           sodipodi:type="star" />
        <path
           sodipodi:type="star"
           style="opacity:1;fill:none;fill-opacity:1;stroke:#000000;stroke-width:0.87202245;stroke-linecap:square;stroke-linejoin:miter;stroke-miterlimit:4;stroke-dasharray:none;stroke-dashoffset:0;stroke-opacity:1"
           id="path6556"
           sodipodi:sides="5"
           sodipodi:cx="231.2487"
           sodipodi:cy="368.70099"
           sodipodi:r1="1.6697267"
           sodipodi:r2="5.217896"
           sodipodi:arg1="1.0838971"
           sodipodi:arg2="1.7122156"
           inkscape:flatsided="false"
           inkscape:rounded="0"
           inkscape:randomized="0"
           d="m 232.02995,370.17667 -1.5167,3.69012 -0.42659,-3.96678 -3.9782,-0.30216 3.64082,-1.63151 -0.94197,-3.87686 2.67674,2.95845 3.39603,-2.09388 -1.9865,3.45994 3.04083,2.58278 z"
           inkscape:transform-center-x="-0.2606215"
           inkscape:transform-center-y="-0.31781983" />
        <path
           style="fill:none;fill-rule:evenodd;stroke:#000000;stroke-width:1px;stroke-linecap:butt;stroke-linejoin:miter;stroke-opacity:1"
           d="m 230.50753,368.61652 c 53.8162,0 54.12728,0.31107 54.12728,0.31107"
           id="path6582"
           inkscape:connector-curvature="0" />
        <path
           style="fill:none;fill-rule:evenodd;stroke:#000000;stroke-width:1px;stroke-linecap:butt;stroke-linejoin:miter;stroke-opacity:1"
           d="m 258.81547,353.37378 25.75792,14.87134"
           id="path6584"
           inkscape:connector-curvature="0" />
        <path
           style="fill:none;fill-rule:evenodd;stroke:#000000;stroke-width:1.05763578px;stroke-linecap:butt;stroke-linejoin:miter;stroke-opacity:1"
           d="m 249.69467,325.38103 34.72866,42.60921"
           id="path6586"
           inkscape:connector-curvature="0" />
      </g>
    </g>
  </g>
</svg>
